<?xml version="1.0" encoding="UTF-8"?>
<svg width="12px" height="12px" viewBox="0 0 12 12" version="1.1" xmlns="http://www.w3.org/2000/svg" xmlns:xlink="http://www.w3.org/1999/xlink">
    <title>arrow-meta-union-types-dark</title>
    <g id="arrow-meta-union-types-dark" stroke="none" stroke-width="1" fill="none" fill-rule="evenodd" opacity="0.5">
        <g id="arrow-meta-coproduct-dark-12">
            <rect id="bound" x="0" y="0" width="12" height="12"></rect>
            <path d="M6.17538462,10.7384615 C6.86051282,10.7384615 7.44102564,10.6071795 7.91692308,10.3446154 C8.39282051,10.0820513 8.75076923,9.72 8.99076923,9.25846154 C9.23076923,8.79692308 9.35076923,8.26871795 9.35076923,7.67384615 L9.35076923,7.67384615 L9.35076923,2 L7.32615385,2 L7.32615385,6.92307692 C7.32615385,7.47692308 7.29641026,7.91692308 7.23692308,8.24307692 C7.1774359,8.56923077 7.06564103,8.81641026 6.90153846,8.98461538 C6.7374359,9.15282051 6.49538462,9.23692308 6.17538462,9.23692308 C5.85538462,9.23692308 5.61333333,9.15282051 5.44923077,8.98461538 C5.28512821,8.81641026 5.17333333,8.56923077 5.11384615,8.24307692 C5.05435897,7.91692308 5.02461538,7.47692308 5.02461538,6.92307692 L5.02461538,6.92307692 L5.02461538,2 L3,2 L3,7.67384615 C3,8.28923077 3.11794872,8.82666667 3.35384615,9.28615385 C3.58974359,9.74564103 3.94564103,10.1025641 4.42153846,10.3569231 C4.8974359,10.6112821 5.48205128,10.7384615 6.17538462,10.7384615 Z" id="U" fill="#FFFFFF"></path>
        </g>
    </g>
</svg>