<?xml version="1.0" encoding="UTF-8"?>
<svg width="12px" height="12px" viewBox="0 0 12 12" version="1.1" xmlns="http://www.w3.org/2000/svg" xmlns:xlink="http://www.w3.org/1999/xlink">
    <title>arrow-meta-type-proofs-c</title>
    <g id="arrow-meta-type-proofs-c" stroke="none" stroke-width="1" fill="none" fill-rule="evenodd">
        <g id="arrow-meta-coproduct-dark-12" opacity="0.5">
            <rect id="bound" x="0" y="0" width="12" height="12"></rect>
        </g>
        <circle id="Oval" fill-opacity="0.7" fill="#62B543" fill-rule="nonzero" cx="6" cy="6" r="6"></circle>
        <path d="M6.09813326,9.73076923 C7.04856061,9.73076923 7.84685121,9.41111111 8.49300506,8.77179487 L8.49300506,8.77179487 L7.72890249,7.7974359 C7.56479993,7.93076923 7.41266318,8.04102564 7.27249224,8.12820513 C7.1323213,8.21538462 6.97249224,8.28803419 6.79300506,8.34615385 C6.61351788,8.4042735 6.41266318,8.43333333 6.19044096,8.43333333 C5.68103925,8.43333333 5.27762044,8.23162393 4.98018455,7.82820513 C4.68274865,7.42478632 4.5340307,6.81111111 4.5340307,5.98717949 C4.5340307,5.42649573 4.60497087,4.96153846 4.74685121,4.59230769 C4.88873155,4.22307692 5.08189395,3.95128205 5.32633839,3.77692308 C5.57078284,3.6025641 5.84856061,3.51538462 6.15967172,3.51538462 C6.67591104,3.51538462 7.14770591,3.68974359 7.57505634,4.03846154 L7.57505634,4.03846154 L8.40069737,3.04358974 C8.08958625,2.78376068 7.75368882,2.58974359 7.39300506,2.46153846 C7.0323213,2.33333333 6.60753497,2.26923077 6.11864608,2.26923077 C5.48616745,2.26923077 4.91864608,2.41538462 4.41608198,2.70769231 C3.91351788,3 3.51779138,3.42649573 3.22890249,3.98717949 C2.94001361,4.54786325 2.79556916,5.21452991 2.79556916,5.98717949 C2.79556916,6.78376068 2.9348854,7.46324786 3.21351788,8.02564103 C3.49215036,8.58803419 3.88018455,9.01282051 4.37762044,9.3 C4.87505634,9.58717949 5.44856061,9.73076923 6.09813326,9.73076923 Z" id="C" fill-opacity="0.7" fill="#231F20" fill-rule="nonzero"></path>
    </g>
</svg>