<?xml version="1.0" encoding="UTF-8"?>
<svg width="12px" height="12px" viewBox="0 0 12 12" version="1.1" xmlns="http://www.w3.org/2000/svg" xmlns:xlink="http://www.w3.org/1999/xlink">
    <!-- Generator: Sketch 60.1 (88133) - https://sketch.com -->
    <title>arrow-meta-intersection-light-12</title>
    <desc>Created with Sketch.</desc>
    <g id="arrow-meta-intersection-light-12" stroke="none" stroke-width="1" fill="none" fill-rule="evenodd">
        <g id="arrow-meta-intersection-dark-12" transform="translate(0.000000, -0.500000)">
            <rect id="bound" x="0" y="0.5" width="12" height="12"></rect>
            <path d="M5.61707692,12.2118462 C6.44353846,12.2118462 7.13269231,12.0745385 7.68453846,11.7999231 C8.23638462,11.5253077 8.67969231,11.1892308 9.01446154,10.7916923 L9.01446154,10.7916923 L9.01446154,6.58615385 L10.2776923,6.58615385 L10.2776923,5.33861538 L6.01723077,5.33861538 C5.68769231,5.33861538 5.38953846,5.26407692 5.12276923,5.115 C4.856,4.96592308 4.64676923,4.76453846 4.49507692,4.51084615 C4.34338462,4.25715385 4.26753846,3.98123077 4.26753846,3.68307692 C4.26753846,3.23846154 4.39307692,2.88407692 4.64415385,2.61992308 C4.89523077,2.35576923 5.25876923,2.22369231 5.73476923,2.22369231 C6.08,2.22369231 6.38076923,2.28776923 6.63707692,2.41592308 C6.89338462,2.54407692 7.15492308,2.75461538 7.42169231,3.04753846 L7.42169231,3.04753846 L8.41815385,2.16092308 C8.00492308,1.71630769 7.57861538,1.40638462 7.13923077,1.23115385 C6.69984615,1.05592308 6.19769231,0.968307692 5.63276923,0.968307692 C5.03123077,0.968307692 4.49638462,1.08469231 4.02823077,1.31746154 C3.56007692,1.55023077 3.19784615,1.86407692 2.94153846,2.259 C2.68523077,2.65392308 2.55707692,3.08938462 2.55707692,3.56538462 C2.55707692,4.14076923 2.70876923,4.62853846 3.01215385,5.02869231 C3.31553846,5.42884615 3.78892308,5.70738462 4.43230769,5.86430769 L4.43230769,5.86430769 L4.43230769,5.91923077 C3.64769231,6.09184615 3.04615385,6.43053846 2.62769231,6.93530769 C2.20923077,7.44007692 2,8.10307692 2,8.92430769 C2,9.52061538 2.13469231,10.0685385 2.40407692,10.5680769 C2.67346154,11.0676154 3.08015385,11.4664615 3.62415385,11.7646154 C4.16815385,12.0627692 4.83246154,12.2118462 5.61707692,12.2118462 Z M5.69553846,10.8701538 C5.25615385,10.8701538 4.88869231,10.7786154 4.59315385,10.5955385 C4.29761538,10.4124615 4.07792308,10.1679231 3.93407692,9.86192308 C3.79023077,9.55592308 3.71830769,9.212 3.71830769,8.83015385 C3.71830769,8.45353846 3.79546154,8.09392308 3.94976923,7.75130769 C4.10407692,7.40869231 4.34076923,7.12884615 4.65984615,6.91176923 C4.97892308,6.69469231 5.37384615,6.58615385 5.84461538,6.58615385 L5.84461538,6.58615385 L7.406,6.58615385 L7.406,10.1875385 C7.22292308,10.402 6.98361538,10.5693846 6.68807692,10.6896923 C6.39253846,10.81 6.06169231,10.8701538 5.69553846,10.8701538 Z" id="&amp;" fill="#2B3940" fill-rule="nonzero" opacity="0.5"></path>
        </g>
    </g>
</svg>