<?xml version="1.0" encoding="UTF-8"?>
<svg width="12px" height="12px" viewBox="0 0 12 12" version="1.1" xmlns="http://www.w3.org/2000/svg" xmlns:xlink="http://www.w3.org/1999/xlink">
    <title>arrow-meta-type-proofs-g_dark</title>
    <g id="arrow-meta-type-proofs-g_dark" stroke="none" stroke-width="1" fill="none" fill-rule="evenodd">
        <g id="arrow-meta-coproduct-dark-12" opacity="0.5">
            <rect id="bound" x="0" y="0" width="12" height="12"></rect>
        </g>
        <circle id="Oval" fill-opacity="0.7" fill="#62B543" fill-rule="nonzero" cx="6" cy="6" r="6"></circle>
        <path d="M5.93733849,9.73076923 C6.40229576,9.73076923 6.83990259,9.66923077 7.250159,9.54615385 C7.66041541,9.42307692 8.05186841,9.24529915 8.42451798,9.01282051 L8.42451798,9.01282051 L8.42451798,5.47948718 L5.77836413,5.47948718 L5.9424667,6.65897436 L6.83477439,6.65897436 L6.83477439,8.28461538 C6.56468892,8.42820513 6.27067182,8.5 5.95272311,8.5 C5.63135559,8.5 5.36896242,8.41965812 5.16554362,8.25897436 C4.96212482,8.0982906 4.81084277,7.83504274 4.71169747,7.46923077 C4.61255217,7.1034188 4.56297952,6.61282051 4.56297952,5.9974359 C4.56297952,5.14615385 4.71169747,4.51623932 5.00913336,4.10769231 C5.30656926,3.6991453 5.70827866,3.49487179 6.21426157,3.49487179 C6.45699661,3.49487179 6.67836413,3.53931624 6.87836413,3.62820513 C7.07836413,3.71709402 7.28947524,3.86068376 7.51169747,4.05897436 L7.51169747,4.05897436 L8.39374875,3.14615385 C8.09289405,2.86239316 7.76297952,2.64529915 7.40400516,2.49487179 C7.0450308,2.34444444 6.62109918,2.26923077 6.13221029,2.26923077 C5.50656926,2.26923077 4.9441761,2.41282051 4.4450308,2.7 C3.9458855,2.98717949 3.55186841,3.41111111 3.26297952,3.97179487 C2.97409063,4.53247863 2.82964618,5.2042735 2.82964618,5.98717949 C2.82964618,7.20769231 3.09460345,8.13675214 3.62451798,8.77435897 C4.15443251,9.41196581 4.92537268,9.73076923 5.93733849,9.73076923 Z" id="G" fill-opacity="0.7" fill="#231F20" fill-rule="nonzero"></path>
    </g>
</svg>