<?xml version="1.0" encoding="UTF-8"?>
<svg width="12px" height="12px" viewBox="0 0 12 12" version="1.1" xmlns="http://www.w3.org/2000/svg" xmlns:xlink="http://www.w3.org/1999/xlink">
    <title>arrow-meta-type-proofs-r_dark</title>
    <g id="arrow-meta-type-proofs-r_dark" stroke="none" stroke-width="1" fill="none" fill-rule="evenodd">
        <g id="arrow-meta-coproduct-dark-12" opacity="0.5">
            <rect id="bound" x="0" y="0" width="12" height="12"></rect>
        </g>
        <circle id="Oval" fill-opacity="0.7" fill="#62B543" fill-rule="nonzero" cx="6" cy="6" r="6"></circle>
        <path d="M5.27692308,9.55384615 L5.27692308,6.83589744 L5.75384615,6.83589744 L7.29230769,9.55384615 L9.19487179,9.55384615 L7.33333333,6.55384615 C7.76410256,6.38290598 8.10940171,6.13589744 8.36923077,5.81282051 C8.62905983,5.48974359 8.75897436,5.08717949 8.75897436,4.60512821 C8.75897436,3.87350427 8.51452991,3.33076923 8.02564103,2.97692308 C7.53675214,2.62307692 6.80512821,2.44615385 5.83076923,2.44615385 L5.83076923,2.44615385 L3.59487179,2.44615385 L3.59487179,9.55384615 L5.27692308,9.55384615 Z M5.9025641,5.68205128 L5.27692308,5.68205128 L5.27692308,3.62564103 L5.83589744,3.62564103 C6.23247863,3.62564103 6.52991453,3.70512821 6.72820513,3.86410256 C6.92649573,4.02307692 7.02564103,4.27008547 7.02564103,4.60512821 C7.02564103,4.97435897 6.93162393,5.24615385 6.74358974,5.42051282 C6.55555556,5.59487179 6.27521368,5.68205128 5.9025641,5.68205128 L5.9025641,5.68205128 Z" id="R" fill-opacity="0.7" fill="#231F20" fill-rule="nonzero"></path>
    </g>
</svg>