<?xml version="1.0" encoding="UTF-8"?>
<svg width="12px" height="12px" viewBox="0 0 12 12" version="1.1" xmlns="http://www.w3.org/2000/svg" xmlns:xlink="http://www.w3.org/1999/xlink">
    <!-- Generator: Sketch 60.1 (88133) - https://sketch.com -->
    <title>arrow-meta-icon4-dark-12</title>
    <desc>Created with Sketch.</desc>
    <g id="arrow-meta-icon4-dark-12" stroke="none" stroke-width="1" fill="none" fill-rule="evenodd" opacity="0.5">
        <g id="arrow-meta-coproduct-dark-12">
            <rect id="bound" x="0" y="0" width="12" height="12"></rect>
            <polygon id="Path-2" fill="#FFFFFF" points="3.72307692 2 4.99692308 3.09538462 2.17075364 6.13538462 4.99692308 9.17538462 3.72307692 10.2707692 0 6.13538462"></polygon>
            <polygon id="Path-2-Copy" fill="#FFFFFF" transform="translate(9.498462, 6.135385) scale(-1, 1) translate(-9.498462, -6.135385) " points="10.7230769 2 11.9969231 3.09538462 9.17075364 6.13538462 11.9969231 9.17538462 10.7230769 10.2707692 7 6.13538462"></polygon>
            <path d="M7.0448833,7 C7.49371634,7 7.86804309,6.87775247 8.16786355,6.6332574 C8.46768402,6.38876234 8.74506284,6.03113136 9,5.56036446 L9,5.56036446 L8.04667864,5.19589977 C7.89228007,5.44191344 7.74236984,5.62262718 7.59694794,5.738041 C7.45152603,5.85345482 7.28186715,5.91116173 7.08797127,5.91116173 C6.96229803,5.91116173 6.84201077,5.88078967 6.72710952,5.82004556 C6.61220826,5.75930144 6.46678636,5.66514806 6.29084381,5.53758542 C6.12926391,5.4221716 5.99012567,5.32877752 5.87342908,5.25740319 C5.7567325,5.18602885 5.62028725,5.12528474 5.46409336,5.07517084 C5.30789946,5.02505695 5.13824057,5 4.9551167,5 C4.64991023,5 4.37791741,5.06378132 4.13913824,5.19134396 C3.90035907,5.31890661 3.6929982,5.48595292 3.51705566,5.69248292 C3.34111311,5.89901291 3.16876122,6.14806378 3,6.43963554 L3,6.43963554 L3.95332136,6.79954442 C4.10771993,6.55960516 4.2567325,6.38116932 4.40035907,6.2642369 C4.54398564,6.14730448 4.71454219,6.08883827 4.91202873,6.08883827 C5.04129264,6.08883827 5.16427289,6.11996963 5.28096948,6.18223235 C5.39766607,6.24449506 5.54398564,6.33940774 5.71992819,6.46697039 C5.87791741,6.579347 6.01615799,6.67122248 6.13464991,6.74259681 C6.25314183,6.81397115 6.38958707,6.87471526 6.54398564,6.92482916 C6.6983842,6.97494305 6.86535009,7 7.0448833,7 Z" id="~" fill="#FFFFFF" fill-rule="nonzero"></path>
        </g>
    </g>
</svg>