<?xml version="1.0" encoding="UTF-8"?>
<svg width="12px" height="12px" viewBox="0 0 12 12" version="1.1" xmlns="http://www.w3.org/2000/svg" xmlns:xlink="http://www.w3.org/1999/xlink">
    <!-- Generator: Sketch 60.1 (88133) - https://sketch.com -->
    <title>arrow-meta-intersection-dark-12</title>
    <desc>Created with Sketch.</desc>
    <defs>
        <rect id="path-1" x="0" y="0" width="12" height="12"></rect>
    </defs>
    <g id="arrow-meta-intersection-dark-12" stroke="none" stroke-width="1" fill="none" fill-rule="evenodd">
        <g>
            <mask id="mask-2" fill="white">
                <use xlink:href="#path-1"></use>
            </mask>
            <g id="bound"></g>
            <path d="M5.61707692,11.7118462 C6.44353846,11.7118462 7.13269231,11.5745385 7.68453846,11.2999231 C8.23638462,11.0253077 8.67969231,10.6892308 9.01446154,10.2916923 L9.01446154,10.2916923 L9.01446154,6.08615385 L10.2776923,6.08615385 L10.2776923,4.83861538 L6.01723077,4.83861538 C5.68769231,4.83861538 5.38953846,4.76407692 5.12276923,4.615 C4.856,4.46592308 4.64676923,4.26453846 4.49507692,4.01084615 C4.34338462,3.75715385 4.26753846,3.48123077 4.26753846,3.18307692 C4.26753846,2.73846154 4.39307692,2.38407692 4.64415385,2.11992308 C4.89523077,1.85576923 5.25876923,1.72369231 5.73476923,1.72369231 C6.08,1.72369231 6.38076923,1.78776923 6.63707692,1.91592308 C6.89338462,2.04407692 7.15492308,2.25461538 7.42169231,2.54753846 L7.42169231,2.54753846 L8.41815385,1.66092308 C8.00492308,1.21630769 7.57861538,0.906384615 7.13923077,0.731153846 C6.69984615,0.555923077 6.19769231,0.468307692 5.63276923,0.468307692 C5.03123077,0.468307692 4.49638462,0.584692308 4.02823077,0.817461538 C3.56007692,1.05023077 3.19784615,1.36407692 2.94153846,1.759 C2.68523077,2.15392308 2.55707692,2.58938462 2.55707692,3.06538462 C2.55707692,3.64076923 2.70876923,4.12853846 3.01215385,4.52869231 C3.31553846,4.92884615 3.78892308,5.20738462 4.43230769,5.36430769 L4.43230769,5.36430769 L4.43230769,5.41923077 C3.64769231,5.59184615 3.04615385,5.93053846 2.62769231,6.43530769 C2.20923077,6.94007692 2,7.60307692 2,8.42430769 C2,9.02061538 2.13469231,9.56853846 2.40407692,10.0680769 C2.67346154,10.5676154 3.08015385,10.9664615 3.62415385,11.2646154 C4.16815385,11.5627692 4.83246154,11.7118462 5.61707692,11.7118462 Z M5.69553846,10.3701538 C5.25615385,10.3701538 4.88869231,10.2786154 4.59315385,10.0955385 C4.29761538,9.91246154 4.07792308,9.66792308 3.93407692,9.36192308 C3.79023077,9.05592308 3.71830769,8.712 3.71830769,8.33015385 C3.71830769,7.95353846 3.79546154,7.59392308 3.94976923,7.25130769 C4.10407692,6.90869231 4.34076923,6.62884615 4.65984615,6.41176923 C4.97892308,6.19469231 5.37384615,6.08615385 5.84461538,6.08615385 L5.84461538,6.08615385 L7.406,6.08615385 L7.406,9.68753846 C7.22292308,9.902 6.98361538,10.0693846 6.68807692,10.1896923 C6.39253846,10.31 6.06169231,10.3701538 5.69553846,10.3701538 Z" id="&amp;" fill="#FFFFFF" fill-rule="nonzero" opacity="0.5" mask="url(#mask-2)"></path>
        </g>
    </g>
</svg>