<?xml version="1.0" encoding="UTF-8"?>
<svg width="12px" height="12px" viewBox="0 0 12 12" version="1.1" xmlns="http://www.w3.org/2000/svg" xmlns:xlink="http://www.w3.org/1999/xlink">
    <title>arrow-meta-union-types-light</title>
    <g id="arrow-meta-union-types-light" stroke="none" stroke-width="1" fill="none" fill-rule="evenodd" opacity="0.5">
        <g id="arrow-meta-coproduct-dark-12">
            <rect id="bound" x="0" y="0" width="12" height="12"></rect>
            <path d="M6.17538462,10.2092308 C6.86051282,10.2092308 7.44102564,10.0779487 7.91692308,9.81538462 C8.39282051,9.55282051 8.75076923,9.19076923 8.99076923,8.72923077 C9.23076923,8.26769231 9.35076923,7.73948718 9.35076923,7.14461538 L9.35076923,7.14461538 L9.35076923,1.47076923 L7.32615385,1.47076923 L7.32615385,6.39384615 C7.32615385,6.94769231 7.29641026,7.38769231 7.23692308,7.71384615 C7.1774359,8.04 7.06564103,8.28717949 6.90153846,8.45538462 C6.7374359,8.62358974 6.49538462,8.70769231 6.17538462,8.70769231 C5.85538462,8.70769231 5.61333333,8.62358974 5.44923077,8.45538462 C5.28512821,8.28717949 5.17333333,8.04 5.11384615,7.71384615 C5.05435897,7.38769231 5.02461538,6.94769231 5.02461538,6.39384615 L5.02461538,6.39384615 L5.02461538,1.47076923 L3,1.47076923 L3,7.14461538 C3,7.76 3.11794872,8.2974359 3.35384615,8.75692308 C3.58974359,9.21641026 3.94564103,9.57333333 4.42153846,9.82769231 C4.8974359,10.0820513 5.48205128,10.2092308 6.17538462,10.2092308 Z" id="U" fill="#2B3940" fill-rule="nonzero"></path>
        </g>
    </g>
</svg>